HIERARCHY
ROOT Hips
{
	OFFSET -0.001795 -0.223333 0.028219
	CHANNELS 6 Xposition Yposition Zposition Zrotation Yrotation Xrotation 
	JOINT LeftUpLeg
	{
		OFFSET 0.069520 -0.091406 -0.006815
		CHANNELS 3 Zrotation Yrotation Xrotation
		JOINT LeftLeg
		{
			OFFSET 0.034277 -0.375199 -0.004496
			CHANNELS 3 Zrotation Yrotation Xrotation
			JOINT LeftFoot
			{
				OFFSET -0.013596 -0.397961 -0.043693
				CHANNELS 3 Zrotation Yrotation Xrotation
				JOINT LeftToe
				{
					OFFSET 0.026358 -0.055791 0.119288
					CHANNELS 3 Zrotation Yrotation Xrotation
					End Site
					{
						OFFSET 0.000000 0.000000 0.000000
					}
				}
			}
		}
	}
	JOINT RightUpLeg
	{
		OFFSET -0.067670 -0.090522 -0.004320
		CHANNELS 3 Zrotation Yrotation Xrotation
		JOINT RightLeg
		{
			OFFSET -0.038290 -0.382569 -0.008850
			CHANNELS 3 Zrotation Yrotation Xrotation
			JOINT RightFoot
			{
				OFFSET 0.015774 -0.398415 -0.042312
				CHANNELS 3 Zrotation Yrotation Xrotation
				JOINT RightToe
				{
					OFFSET -0.025372 -0.048144 0.123348
					CHANNELS 3 Zrotation Yrotation Xrotation
					End Site
					{
						OFFSET 0.000000 0.000000 0.000000
					}
				}
			}
		}
	}
	JOINT Spine
	{
		OFFSET -0.002533 0.108963 -0.026696
		CHANNELS 3 Zrotation Yrotation Xrotation
		JOINT Spine1
		{
			OFFSET 0.005487 0.135180 0.001092
			CHANNELS 3 Zrotation Yrotation Xrotation
			JOINT Spine2
			{
				OFFSET 0.001457 0.052922 0.025425
				CHANNELS 3 Zrotation Yrotation Xrotation
				JOINT Neck
				{
					OFFSET -0.002778 0.213870 -0.042857
					CHANNELS 3 Zrotation Yrotation Xrotation
					JOINT Head
					{
						OFFSET 0.005152 0.064970 0.051349
						CHANNELS 3 Zrotation Yrotation Xrotation
						End Site
						{
							OFFSET 0.000000 0.000000 0.000000
						}
					}
				}
				JOINT LeftShoulder
				{
					OFFSET 0.078845 0.121749 -0.034090
					CHANNELS 3 Zrotation Yrotation Xrotation
					JOINT LeftArm
					{
						OFFSET 0.090977 0.030469 -0.008868
						CHANNELS 3 Zrotation Yrotation Xrotation
						JOINT LeftForeArm
						{
							OFFSET 0.259612 -0.012772 -0.027456
							CHANNELS 3 Zrotation Yrotation Xrotation
							JOINT LeftHand
							{
								OFFSET 0.249234 0.008986 -0.001171
								CHANNELS 3 Zrotation Yrotation Xrotation
								End Site
								{
									OFFSET 0.000000 0.000000 0.000000
								}
							}
						}
					}
				}
				JOINT RightShoulder
				{
					OFFSET -0.081759 0.118833 -0.038615
					CHANNELS 3 Zrotation Yrotation Xrotation
					JOINT RightArm
					{
						OFFSET -0.096012 0.032551 -0.009143
						CHANNELS 3 Zrotation Yrotation Xrotation
						JOINT RightForeArm
						{
							OFFSET -0.253742 -0.013329 -0.021401
							CHANNELS 3 Zrotation Yrotation Xrotation
							JOINT RightHand
							{
								OFFSET -0.255298 0.007772 -0.005559
								CHANNELS 3 Zrotation Yrotation Xrotation
								End Site
								{
									OFFSET 0.000000 0.000000 0.000000
								}
							}
						}
					}
				}
			}
		}
	}
}
MOTION
Frames: 10
Frame Time: 0.050000
0.000000 0.941648 0.000000 0.335793 17.617838 11.259505 3.041254 -0.835544 -9.474655 -1.124684 0.153904 -4.574547 -0.421254 4.298023 8.464745 0.000000 0.000000 0.000000 -2.175296 1.051471 -17.592437 -2.365780 0.499487 4.681052 1.551935 2.874327 3.700030 0.000000 0.000000 0.000000 2.727005 -0.645070 6.809821 5.414765 -2.961785 2.186795 -1.971528 -3.766046 2.253641 0.920120 -0.374515 -2.487059 0.000000 0.000000 0.000000 -4.376528 -33.334896 12.412403 -44.697478 -61.598261 19.351574 16.669536 -16.899658 -1.805843 0.000000 0.000000 0.000000 4.411649 28.305287 11.891082 37.494003 47.477351 11.581027 -13.408218 17.655663 -1.156757 0.000000 0.000000 0.000000 
-0.000365 0.943752 0.002200 -0.068409 17.151524 11.598676 2.245994 -0.781007 -8.833248 0.884812 0.144130 -6.522724 -0.826227 4.167709 9.597168 0.000000 0.000000 0.000000 -2.737023 0.976855 -16.863193 -0.345607 0.117332 2.739419 2.389826 4.269895 5.271014 0.000000 0.000000 0.000000 2.064797 -0.364446 4.024322 4.502412 -2.278422 0.681846 -0.816705 -4.273125 3.849427 0.920813 -0.522454 -1.477774 0.000000 0.000000 0.000000 -5.929931 -30.801397 11.692116 -49.900177 -60.610195 21.778316 13.787299 -19.733044 -1.630147 0.000000 0.000000 0.000000 5.759892 24.709028 10.481713 45.253900 45.626850 13.717810 -11.832255 21.081912 -1.151946 0.000000 0.000000 0.000000 
-0.000766 0.943949 0.004876 -0.415475 17.933325 10.220736 2.703773 -0.645322 -7.215111 1.371455 0.116316 -5.914872 -1.494287 2.727403 8.896734 0.000000 0.000000 0.000000 -2.235600 0.959117 -14.859327 -0.889205 0.193023 2.439714 2.314122 4.011708 5.691098 0.000000 0.000000 0.000000 1.870990 -0.267766 2.966373 4.806872 -2.286093 -0.372614 -1.857982 -4.671045 4.227691 0.498391 -0.229794 -1.176880 0.000000 0.000000 0.000000 -5.662200 -27.579972 10.156842 -56.377695 -57.336828 23.234307 11.369474 -25.754872 -1.673553 0.000000 0.000000 0.000000 7.422845 21.792169 9.537931 47.291888 40.701856 12.120191 -7.204800 27.022753 -0.479240 0.000000 0.000000 0.000000 
-0.001190 0.943433 0.007693 -0.556384 18.825457 9.922544 2.516537 -0.595429 -6.615218 1.947729 0.101293 -5.938577 -0.962594 2.997877 7.606900 0.000000 0.000000 0.000000 -2.734130 0.828154 -13.289670 -0.006481 0.019532 0.967971 2.818925 5.483026 4.825465 0.000000 0.000000 0.000000 1.699460 -0.150931 1.248959 4.523741 -2.203998 -0.039276 -1.865379 -4.985805 3.325126 0.385637 -0.131222 -1.252619 0.000000 0.000000 0.000000 -5.576485 -24.619179 8.845918 -62.838433 -53.357943 23.946531 7.670133 -30.918448 -1.090233 0.000000 0.000000 0.000000 7.122083 17.585238 7.559449 51.363727 35.970868 11.337423 -2.378996 29.394251 0.669982 0.000000 0.000000 0.000000 
-0.001669 0.942281 0.011048 -0.711093 20.007458 8.355214 2.764034 -0.471749 -4.918977 1.924794 0.088752 -5.614931 -0.788366 3.071291 7.084409 0.000000 0.000000 0.000000 -2.465662 0.746337 -11.190889 -0.450811 0.068960 0.458801 2.386543 4.609430 4.681400 0.000000 0.000000 0.000000 1.311938 -0.080239 0.469515 4.344093 -2.011787 -0.833943 -2.204548 -6.282144 4.022891 0.559125 -0.228569 -1.682383 0.000000 0.000000 0.000000 -7.992588 -22.399632 8.162611 -61.740526 -47.163550 19.385880 1.410877 -38.637043 0.739843 0.000000 0.000000 0.000000 8.459954 14.293250 6.150240 51.781861 29.034396 7.950700 4.601732 32.398292 2.667710 0.000000 0.000000 0.000000 
-0.002113 0.942163 0.014508 -0.947685 20.316787 7.351512 2.496406 -0.401769 -4.095706 2.853643 0.029571 -4.784515 -0.906241 2.283252 6.065070 0.000000 0.000000 0.000000 -2.393364 0.681572 -9.847581 -0.165194 0.013489 -0.038215 2.484429 4.956872 4.309526 0.000000 0.000000 0.000000 1.378523 -0.052397 -0.040725 4.051673 -1.847115 -1.022075 -2.457924 -5.732970 3.961375 0.161687 -0.005895 -0.854071 0.000000 0.000000 0.000000 -8.784967 -18.196639 6.221425 -64.431247 -40.572458 15.973250 -6.689600 -44.910504 3.973910 0.000000 0.000000 0.000000 8.842642 10.975445 4.780418 52.336173 22.534006 5.041811 11.175186 33.820109 4.813864 0.000000 0.000000 0.000000 
-0.002299 0.941527 0.017846 -0.917703 21.085549 6.661168 2.683234 -0.359378 -3.347370 2.541584 0.031839 -4.563766 -0.894906 2.170639 5.791640 0.000000 0.000000 0.000000 -2.629397 0.602687 -8.962039 0.036346 -0.003337 0.466438 1.873896 3.754111 3.691373 0.000000 0.000000 0.000000 1.173835 -0.004335 -0.912323 3.711655 -1.590804 -1.721679 -2.789121 -5.491176 4.014821 0.517239 -0.317694 -0.565768 0.000000 0.000000 0.000000 -10.257610 -14.213396 4.325731 -65.283537 -33.929104 11.862861 -15.842884 -48.154273 8.130619 0.000000 0.000000 0.000000 9.455650 7.009602 3.110126 53.579189 16.818048 2.571859 15.431573 33.263410 6.066602 0.000000 0.000000 0.000000 
-0.002243 0.940824 0.020540 -1.175120 21.493892 5.772107 2.885894 -0.325738 -2.661790 2.605203 0.018603 -4.299189 -1.187491 1.200019 5.072853 0.000000 0.000000 0.000000 -2.733198 0.526562 -7.824841 0.401243 -0.056634 0.598537 1.403133 2.787408 3.176587 0.000000 0.000000 0.000000 1.501004 0.009037 -1.313061 3.537440 -1.521064 -1.620836 -2.768403 -4.293736 3.084492 1.174270 -1.088361 1.087134 0.000000 0.000000 0.000000 -10.707070 -11.042089 2.664341 -65.409016 -28.377858 8.337085 -25.462864 -50.636677 12.786598 0.000000 0.000000 0.000000 9.579076 4.011518 1.889775 54.957399 12.010730 0.589655 16.884708 31.287048 6.160149 0.000000 0.000000 0.000000 
-0.002017 0.940477 0.022499 -1.097381 21.804774 5.643930 2.775755 -0.317466 -2.613088 2.697097 0.012199 -4.223517 -1.462567 1.088121 5.624150 0.000000 0.000000 0.000000 -2.702174 0.490214 -7.184661 0.444636 -0.069360 0.348437 1.290477 2.588665 2.933680 0.000000 0.000000 0.000000 1.565792 0.054226 -2.496609 3.297664 -1.394976 -1.718087 -2.798107 -3.563766 2.681239 1.006620 -1.208819 2.549639 0.000000 0.000000 0.000000 -10.699498 -8.197989 1.283897 -65.667929 -24.267279 5.739646 -31.923584 -50.849743 15.730294 0.000000 0.000000 0.000000 10.059743 1.313075 0.755400 55.851740 8.711651 -0.842600 15.413624 28.729193 5.263775 0.000000 0.000000 0.000000 
-0.001820 0.939880 0.023476 -1.265425 21.959842 5.196903 2.991815 -0.311648 -2.326136 2.556009 -0.001240 -3.757869 -1.293307 0.817040 4.753711 0.000000 0.000000 0.000000 -2.730399 0.444517 -6.488483 1.010041 -0.160545 0.133297 1.064664 2.047847 2.940502 0.000000 0.000000 0.000000 1.971330 0.086145 -3.401517 3.005133 -1.302050 -1.372729 -2.630998 -2.581413 1.920155 1.626382 -2.053925 4.125975 0.000000 0.000000 0.000000 -10.696456 -6.936031 0.591095 -65.293814 -21.463449 3.971024 -34.624720 -50.472207 16.632440 0.000000 0.000000 0.000000 10.545641 0.039218 0.275903 56.166678 6.471795 -1.805439 13.698643 26.508798 4.429247 0.000000 0.000000 0.000000 
